<svg width="13" height="17" viewBox="0 0 13 17" fill="none" xmlns="http://www.w3.org/2000/svg">
<path d="M1.59331 6.67615C1.22268 7.02199 0.639201 7.02199 0.268578 6.67615C-0.0895252 6.33031 -0.0895252 5.78584 0.268578 5.44L5.81958 0.25938C5.99154 0.0989227 6.23028 0 6.49489 0C6.7595 0 6.99823 0.0989227 7.17103 0.25938L12.722 5.44C13.0927 5.78584 13.0927 6.33031 12.722 6.67615C12.3514 7.02199 11.7679 7.02199 11.3973 6.67615L7.43564 2.96692L7.43564 16.1346C7.43647 16.6168 7.01242 17 6.49572 17C5.97902 17 5.56833 16.6168 5.56833 16.1346L5.56833 2.9677L1.59331 6.67615Z" fill="white"/>
</svg>
